P2
# brilliant.pgm
24 7
17
2 2 2 2 2 2 2 2 2 2 2 2 2 2 2 2 2 2 2 2 2 2 2 2 
2 5 5 5 5 2 2 9 9 9 9 2 2 13 13 13 13 2 2 17 17 17 17 2 
2 5 2 2 2 2 2 9 2 2 2 2 2 13 2 2 2 2 2 17 2 2 17 2 
2 5 5 5 2 2 2 9 9 9 2 2 2 13 13 13 2 2 2 17 17 17 17 2 
2 5 2 2 2 2 2 9 2 2 2 2 2 13 2 2 2 2 2 17 2 2 2 2 
2 5 2 2 2 2 2 9 9 9 9 2 2 13 13 13 13 2 2 17 2 2 2 2 
2 2 2 2 2 2 2 2 2 2 2 2 2 2 2 2 2 2 2 2 2 2 2 2 
